<svg width="91" height="73" viewBox="0 0 91 73" fill="none" xmlns="http://www.w3.org/2000/svg">
<g clip-path="url(#clip0_4_7)">
<g clip-path="url(#clip1_4_7)">
<path d="M38 8H14C9.6 8 6.04 11.1364 6.04 14.9697L6 56.7879C6 60.6212 9.6 63.7576 14 63.7576H78C82.4 63.7576 86 60.6212 86 56.7879V21.9394C86 18.1061 82.4 14.9697 78 14.9697H46L38 8Z" fill="#0074D8"/>
<path d="M43.784 48.732V51.948C43.784 52.172 43.836 52.336 43.94 52.44C44.052 52.536 44.236 52.584 44.492 52.584H45.272V54H44.216C42.8 54 42.092 53.312 42.092 51.936V48.732H41.3V47.352H42.092V45.708H43.784V47.352H45.272V48.732H43.784ZM46.0483 50.652C46.0483 49.98 46.1803 49.384 46.4443 48.864C46.7163 48.344 47.0803 47.944 47.5363 47.664C48.0003 47.384 48.5163 47.244 49.0843 47.244C49.5803 47.244 50.0123 47.344 50.3803 47.544C50.7563 47.744 51.0563 47.996 51.2803 48.3V47.352H52.9723V54H51.2803V53.028C51.0643 53.34 50.7643 53.6 50.3803 53.808C50.0043 54.008 49.5683 54.108 49.0723 54.108C48.5123 54.108 48.0003 53.964 47.5363 53.676C47.0803 53.388 46.7163 52.984 46.4443 52.464C46.1803 51.936 46.0483 51.332 46.0483 50.652ZM51.2803 50.676C51.2803 50.268 51.2003 49.92 51.0403 49.632C50.8803 49.336 50.6643 49.112 50.3923 48.96C50.1203 48.8 49.8283 48.72 49.5163 48.72C49.2043 48.72 48.9163 48.796 48.6523 48.948C48.3883 49.1 48.1723 49.324 48.0043 49.62C47.8443 49.908 47.7643 50.252 47.7643 50.652C47.7643 51.052 47.8443 51.404 48.0043 51.708C48.1723 52.004 48.3883 52.232 48.6523 52.392C48.9243 52.552 49.2123 52.632 49.5163 52.632C49.8283 52.632 50.1203 52.556 50.3923 52.404C50.6643 52.244 50.8803 52.02 51.0403 51.732C51.2003 51.436 51.2803 51.084 51.2803 50.676ZM56.2932 48.384C56.5092 48.032 56.7892 47.756 57.1332 47.556C57.4852 47.356 57.8852 47.256 58.3332 47.256V49.02H57.8892C57.3612 49.02 56.9612 49.144 56.6892 49.392C56.4252 49.64 56.2932 50.072 56.2932 50.688V54H54.6132V47.352H56.2932V48.384ZM60.2087 54.084C59.9047 54.084 59.6527 53.992 59.4527 53.808C59.2607 53.616 59.1647 53.38 59.1647 53.1C59.1647 52.82 59.2607 52.588 59.4527 52.404C59.6527 52.212 59.9047 52.116 60.2087 52.116C60.5047 52.116 60.7487 52.212 60.9407 52.404C61.1327 52.588 61.2287 52.82 61.2287 53.1C61.2287 53.38 61.1327 53.616 60.9407 53.808C60.7487 53.992 60.5047 54.084 60.2087 54.084ZM65.1859 47.244C65.6819 47.244 66.1179 47.344 66.4939 47.544C66.8699 47.736 67.1659 47.988 67.3819 48.3V47.352H69.0739V54.048C69.0739 54.664 68.9499 55.212 68.7019 55.692C68.4539 56.18 68.0819 56.564 67.5859 56.844C67.0899 57.132 66.4899 57.276 65.7859 57.276C64.8419 57.276 64.0659 57.056 63.4579 56.616C62.8579 56.176 62.5179 55.576 62.4379 54.816H64.1059C64.1939 55.12 64.3819 55.36 64.6699 55.536C64.9659 55.72 65.3219 55.812 65.7379 55.812C66.2259 55.812 66.6219 55.664 66.9259 55.368C67.2299 55.08 67.3819 54.64 67.3819 54.048V53.016C67.1659 53.328 66.8659 53.588 66.4819 53.796C66.1059 54.004 65.6739 54.108 65.1859 54.108C64.6259 54.108 64.1139 53.964 63.6499 53.676C63.1859 53.388 62.8179 52.984 62.5459 52.464C62.2819 51.936 62.1499 51.332 62.1499 50.652C62.1499 49.98 62.2819 49.384 62.5459 48.864C62.8179 48.344 63.1819 47.944 63.6379 47.664C64.1019 47.384 64.6179 47.244 65.1859 47.244ZM67.3819 50.676C67.3819 50.268 67.3019 49.92 67.1419 49.632C66.9819 49.336 66.7659 49.112 66.4939 48.96C66.2219 48.8 65.9299 48.72 65.6179 48.72C65.3059 48.72 65.0179 48.796 64.7539 48.948C64.4899 49.1 64.2739 49.324 64.1059 49.62C63.9459 49.908 63.8659 50.252 63.8659 50.652C63.8659 51.052 63.9459 51.404 64.1059 51.708C64.2739 52.004 64.4899 52.232 64.7539 52.392C65.0259 52.552 65.3139 52.632 65.6179 52.632C65.9299 52.632 66.2219 52.556 66.4939 52.404C66.7659 52.244 66.9819 52.02 67.1419 51.732C67.3019 51.436 67.3819 51.084 67.3819 50.676ZM72.2507 52.62H75.2147V54H70.3427V52.644L73.2467 48.732H70.3547V47.352H75.1787V48.708L72.2507 52.62Z" fill="white"/>
</g>
</g>
<defs>
<clipPath id="clip0_4_7">
<rect width="90" height="70" fill="white" transform="translate(1 1)"/>
</clipPath>
<clipPath id="clip1_4_7">
<rect width="90" height="70" fill="white" transform="translate(1 1)"/>
</clipPath>
</defs>
</svg>
