<svg width="91" height="73" viewBox="0 0 91 73" fill="none" xmlns="http://www.w3.org/2000/svg">
<g clip-path="url(#clip0_4_2)">
<path d="M38 8H14C9.6 8 6.04 11.1364 6.04 14.9697L6 56.7879C6 60.6212 9.6 63.7576 14 63.7576H78C82.4 63.7576 86 60.6212 86 56.7879V21.9394C86 18.1061 82.4 14.9697 78 14.9697H46L38 8Z" fill="#0074D8"/>
<path d="M57.572 54.084C57.268 54.084 57.016 53.992 56.816 53.808C56.624 53.616 56.528 53.38 56.528 53.1C56.528 52.82 56.624 52.588 56.816 52.404C57.016 52.212 57.268 52.116 57.572 52.116C57.868 52.116 58.112 52.212 58.304 52.404C58.496 52.588 58.592 52.82 58.592 53.1C58.592 53.38 58.496 53.616 58.304 53.808C58.112 53.992 57.868 54.084 57.572 54.084ZM61.4812 52.62H64.4452V54H59.5732V52.644L62.4772 48.732H59.5852V47.352H64.4092V48.708L61.4812 52.62ZM66.598 46.56C66.302 46.56 66.054 46.468 65.854 46.284C65.662 46.092 65.566 45.856 65.566 45.576C65.566 45.296 65.662 45.064 65.854 44.88C66.054 44.688 66.302 44.592 66.598 44.592C66.894 44.592 67.138 44.688 67.33 44.88C67.53 45.064 67.63 45.296 67.63 45.576C67.63 45.856 67.53 46.092 67.33 46.284C67.138 46.468 66.894 46.56 66.598 46.56ZM67.426 47.352V54H65.746V47.352H67.426ZM70.7658 48.312C70.9818 48.008 71.2778 47.756 71.6538 47.556C72.0378 47.348 72.4738 47.244 72.9618 47.244C73.5298 47.244 74.0418 47.384 74.4978 47.664C74.9618 47.944 75.3258 48.344 75.5898 48.864C75.8618 49.376 75.9978 49.972 75.9978 50.652C75.9978 51.332 75.8618 51.936 75.5898 52.464C75.3258 52.984 74.9618 53.388 74.4978 53.676C74.0418 53.964 73.5298 54.108 72.9618 54.108C72.4738 54.108 72.0418 54.008 71.6658 53.808C71.2978 53.608 70.9978 53.356 70.7658 53.052V57.168H69.0858V47.352H70.7658V48.312ZM74.2818 50.652C74.2818 50.252 74.1978 49.908 74.0298 49.62C73.8698 49.324 73.6538 49.1 73.3818 48.948C73.1178 48.796 72.8298 48.72 72.5178 48.72C72.2138 48.72 71.9258 48.8 71.6538 48.96C71.3898 49.112 71.1738 49.336 71.0058 49.632C70.8458 49.928 70.7658 50.276 70.7658 50.676C70.7658 51.076 70.8458 51.424 71.0058 51.72C71.1738 52.016 71.3898 52.244 71.6538 52.404C71.9258 52.556 72.2138 52.632 72.5178 52.632C72.8298 52.632 73.1178 52.552 73.3818 52.392C73.6538 52.232 73.8698 52.004 74.0298 51.708C74.1978 51.412 74.2818 51.06 74.2818 50.652Z" fill="white"/>
</g>
<defs>
<clipPath id="clip0_4_2">
<rect width="90" height="70" fill="white" transform="translate(1 1)"/>
</clipPath>
</defs>
</svg>
