<svg width="180" height="140" viewBox="0 0 180 140" fill="none" xmlns="http://www.w3.org/2000/svg">
<g clip-path="url(#clip0_1_4)">
<g clip-path="url(#clip1_1_4)">
<path d="M37 7H13C8.6 7 5.04 10.1364 5.04 13.9697L5 55.7879C5 59.6212 8.6 62.7576 13 62.7576H77C81.4 62.7576 85 59.6212 85 55.7879V20.9394C85 17.1061 81.4 13.9697 77 13.9697H45L37 7Z" fill="#0074D8"/>
<path d="M56.572 53.084C56.268 53.084 56.016 52.992 55.816 52.808C55.624 52.616 55.528 52.38 55.528 52.1C55.528 51.82 55.624 51.588 55.816 51.404C56.016 51.212 56.268 51.116 56.572 51.116C56.868 51.116 57.112 51.212 57.304 51.404C57.496 51.588 57.592 51.82 57.592 52.1C57.592 52.38 57.496 52.616 57.304 52.808C57.112 52.992 56.868 53.084 56.572 53.084ZM60.4812 51.62H63.4452V53H58.5732V51.644L61.4772 47.732H58.5852V46.352H63.4092V47.708L60.4812 51.62ZM65.598 45.56C65.302 45.56 65.054 45.468 64.854 45.284C64.662 45.092 64.566 44.856 64.566 44.576C64.566 44.296 64.662 44.064 64.854 43.88C65.054 43.688 65.302 43.592 65.598 43.592C65.894 43.592 66.138 43.688 66.33 43.88C66.53 44.064 66.63 44.296 66.63 44.576C66.63 44.856 66.53 45.092 66.33 45.284C66.138 45.468 65.894 45.56 65.598 45.56ZM66.426 46.352V53H64.746V46.352H66.426ZM69.7658 47.312C69.9818 47.008 70.2778 46.756 70.6538 46.556C71.0378 46.348 71.4738 46.244 71.9618 46.244C72.5298 46.244 73.0418 46.384 73.4978 46.664C73.9618 46.944 74.3258 47.344 74.5898 47.864C74.8618 48.376 74.9978 48.972 74.9978 49.652C74.9978 50.332 74.8618 50.936 74.5898 51.464C74.3258 51.984 73.9618 52.388 73.4978 52.676C73.0418 52.964 72.5298 53.108 71.9618 53.108C71.4738 53.108 71.0418 53.008 70.6658 52.808C70.2978 52.608 69.9978 52.356 69.7658 52.052V56.168H68.0858V46.352H69.7658V47.312ZM73.2818 49.652C73.2818 49.252 73.1978 48.908 73.0298 48.62C72.8698 48.324 72.6538 48.1 72.3818 47.948C72.1178 47.796 71.8298 47.72 71.5178 47.72C71.2138 47.72 70.9258 47.8 70.6538 47.96C70.3898 48.112 70.1738 48.336 70.0058 48.632C69.8458 48.928 69.7658 49.276 69.7658 49.676C69.7658 50.076 69.8458 50.424 70.0058 50.72C70.1738 51.016 70.3898 51.244 70.6538 51.404C70.9258 51.556 71.2138 51.632 71.5178 51.632C71.8298 51.632 72.1178 51.552 72.3818 51.392C72.6538 51.232 72.8698 51.004 73.0298 50.708C73.1978 50.412 73.2818 50.06 73.2818 49.652Z" fill="white"/>
</g>
<g clip-path="url(#clip2_1_4)">
<path d="M37 77H13C8.6 77 5.04 80.1365 5.04 83.97L5 125.79C5 129.623 8.6 132.76 13 132.76H77C81.4 132.76 85 129.623 85 125.79V90.94C85 87.1065 81.4 83.97 77 83.97H45L37 77Z" fill="#585858"/>
<path d="M56.572 123.084C56.268 123.084 56.016 122.992 55.816 122.808C55.624 122.616 55.528 122.38 55.528 122.1C55.528 121.82 55.624 121.588 55.816 121.404C56.016 121.212 56.268 121.116 56.572 121.116C56.868 121.116 57.112 121.212 57.304 121.404C57.496 121.588 57.592 121.82 57.592 122.1C57.592 122.38 57.496 122.616 57.304 122.808C57.112 122.992 56.868 123.084 56.572 123.084ZM60.4812 121.62H63.4452V123H58.5732V121.644L61.4772 117.732H58.5852V116.352H63.4092V117.708L60.4812 121.62ZM65.598 115.56C65.302 115.56 65.054 115.468 64.854 115.284C64.662 115.092 64.566 114.856 64.566 114.576C64.566 114.296 64.662 114.064 64.854 113.88C65.054 113.688 65.302 113.592 65.598 113.592C65.894 113.592 66.138 113.688 66.33 113.88C66.53 114.064 66.63 114.296 66.63 114.576C66.63 114.856 66.53 115.092 66.33 115.284C66.138 115.468 65.894 115.56 65.598 115.56ZM66.426 116.352V123H64.746V116.352H66.426ZM69.7658 117.312C69.9818 117.008 70.2778 116.756 70.6538 116.556C71.0378 116.348 71.4738 116.244 71.9618 116.244C72.5298 116.244 73.0418 116.384 73.4978 116.664C73.9618 116.944 74.3258 117.344 74.5898 117.864C74.8618 118.376 74.9978 118.972 74.9978 119.652C74.9978 120.332 74.8618 120.936 74.5898 121.464C74.3258 121.984 73.9618 122.388 73.4978 122.676C73.0418 122.964 72.5298 123.108 71.9618 123.108C71.4738 123.108 71.0418 123.008 70.6658 122.808C70.2978 122.608 69.9978 122.356 69.7658 122.052V126.168H68.0858V116.352H69.7658V117.312ZM73.2818 119.652C73.2818 119.252 73.1978 118.908 73.0298 118.62C72.8698 118.324 72.6538 118.1 72.3818 117.948C72.1178 117.796 71.8298 117.72 71.5178 117.72C71.2138 117.72 70.9258 117.8 70.6538 117.96C70.3898 118.112 70.1738 118.336 70.0058 118.632C69.8458 118.928 69.7658 119.276 69.7658 119.676C69.7658 120.076 69.8458 120.424 70.0058 120.72C70.1738 121.016 70.3898 121.244 70.6538 121.404C70.9258 121.556 71.2138 121.632 71.5178 121.632C71.8298 121.632 72.1178 121.552 72.3818 121.392C72.6538 121.232 72.8698 121.004 73.0298 120.708C73.1978 120.412 73.2818 120.06 73.2818 119.652Z" fill="white"/>
</g>
<g clip-path="url(#clip3_1_4)">
<path d="M127 77H103C98.6 77 95.04 80.1365 95.04 83.97L95 125.79C95 129.623 98.6 132.76 103 132.76H167C171.4 132.76 175 129.623 175 125.79V90.94C175 87.1065 171.4 83.97 167 83.97H135L127 77Z" fill="#585858"/>
<path d="M132.784 117.732V120.948C132.784 121.172 132.836 121.336 132.94 121.44C133.052 121.536 133.236 121.584 133.492 121.584H134.272V123H133.216C131.8 123 131.092 122.312 131.092 120.936V117.732H130.3V116.352H131.092V114.708H132.784V116.352H134.272V117.732H132.784ZM135.048 119.652C135.048 118.98 135.18 118.384 135.444 117.864C135.716 117.344 136.08 116.944 136.536 116.664C137 116.384 137.516 116.244 138.084 116.244C138.58 116.244 139.012 116.344 139.38 116.544C139.756 116.744 140.056 116.996 140.28 117.3V116.352H141.972V123H140.28V122.028C140.064 122.34 139.764 122.6 139.38 122.808C139.004 123.008 138.568 123.108 138.072 123.108C137.512 123.108 137 122.964 136.536 122.676C136.08 122.388 135.716 121.984 135.444 121.464C135.18 120.936 135.048 120.332 135.048 119.652ZM140.28 119.676C140.28 119.268 140.2 118.92 140.04 118.632C139.88 118.336 139.664 118.112 139.392 117.96C139.12 117.8 138.828 117.72 138.516 117.72C138.204 117.72 137.916 117.796 137.652 117.948C137.388 118.1 137.172 118.324 137.004 118.62C136.844 118.908 136.764 119.252 136.764 119.652C136.764 120.052 136.844 120.404 137.004 120.708C137.172 121.004 137.388 121.232 137.652 121.392C137.924 121.552 138.212 121.632 138.516 121.632C138.828 121.632 139.12 121.556 139.392 121.404C139.664 121.244 139.88 121.02 140.04 120.732C140.2 120.436 140.28 120.084 140.28 119.676ZM145.293 117.384C145.509 117.032 145.789 116.756 146.133 116.556C146.485 116.356 146.885 116.256 147.333 116.256V118.02H146.889C146.361 118.02 145.961 118.144 145.689 118.392C145.425 118.64 145.293 119.072 145.293 119.688V123H143.613V116.352H145.293V117.384ZM149.209 123.084C148.905 123.084 148.653 122.992 148.453 122.808C148.261 122.616 148.165 122.38 148.165 122.1C148.165 121.82 148.261 121.588 148.453 121.404C148.653 121.212 148.905 121.116 149.209 121.116C149.505 121.116 149.749 121.212 149.941 121.404C150.133 121.588 150.229 121.82 150.229 122.1C150.229 122.38 150.133 122.616 149.941 122.808C149.749 122.992 149.505 123.084 149.209 123.084ZM154.186 116.244C154.682 116.244 155.118 116.344 155.494 116.544C155.87 116.736 156.166 116.988 156.382 117.3V116.352H158.074V123.048C158.074 123.664 157.95 124.212 157.702 124.692C157.454 125.18 157.082 125.564 156.586 125.844C156.09 126.132 155.49 126.276 154.786 126.276C153.842 126.276 153.066 126.056 152.458 125.616C151.858 125.176 151.518 124.576 151.438 123.816H153.106C153.194 124.12 153.382 124.36 153.67 124.536C153.966 124.72 154.322 124.812 154.738 124.812C155.226 124.812 155.622 124.664 155.926 124.368C156.23 124.08 156.382 123.64 156.382 123.048V122.016C156.166 122.328 155.866 122.588 155.482 122.796C155.106 123.004 154.674 123.108 154.186 123.108C153.626 123.108 153.114 122.964 152.65 122.676C152.186 122.388 151.818 121.984 151.546 121.464C151.282 120.936 151.15 120.332 151.15 119.652C151.15 118.98 151.282 118.384 151.546 117.864C151.818 117.344 152.182 116.944 152.638 116.664C153.102 116.384 153.618 116.244 154.186 116.244ZM156.382 119.676C156.382 119.268 156.302 118.92 156.142 118.632C155.982 118.336 155.766 118.112 155.494 117.96C155.222 117.8 154.93 117.72 154.618 117.72C154.306 117.72 154.018 117.796 153.754 117.948C153.49 118.1 153.274 118.324 153.106 118.62C152.946 118.908 152.866 119.252 152.866 119.652C152.866 120.052 152.946 120.404 153.106 120.708C153.274 121.004 153.49 121.232 153.754 121.392C154.026 121.552 154.314 121.632 154.618 121.632C154.93 121.632 155.222 121.556 155.494 121.404C155.766 121.244 155.982 121.02 156.142 120.732C156.302 120.436 156.382 120.084 156.382 119.676ZM161.251 121.62H164.215V123H159.343V121.644L162.247 117.732H159.355V116.352H164.179V117.708L161.251 121.62Z" fill="white"/>
</g>
<g clip-path="url(#clip4_1_4)">
<path d="M127 7H103C98.6 7 95.04 10.1364 95.04 13.9697L95 55.7879C95 59.6212 98.6 62.7576 103 62.7576H167C171.4 62.7576 175 59.6212 175 55.7879V20.9394C175 17.1061 171.4 13.9697 167 13.9697H135L127 7Z" fill="#0074D8"/>
<path d="M132.784 47.732V50.948C132.784 51.172 132.836 51.336 132.94 51.44C133.052 51.536 133.236 51.584 133.492 51.584H134.272V53H133.216C131.8 53 131.092 52.312 131.092 50.936V47.732H130.3V46.352H131.092V44.708H132.784V46.352H134.272V47.732H132.784ZM135.048 49.652C135.048 48.98 135.18 48.384 135.444 47.864C135.716 47.344 136.08 46.944 136.536 46.664C137 46.384 137.516 46.244 138.084 46.244C138.58 46.244 139.012 46.344 139.38 46.544C139.756 46.744 140.056 46.996 140.28 47.3V46.352H141.972V53H140.28V52.028C140.064 52.34 139.764 52.6 139.38 52.808C139.004 53.008 138.568 53.108 138.072 53.108C137.512 53.108 137 52.964 136.536 52.676C136.08 52.388 135.716 51.984 135.444 51.464C135.18 50.936 135.048 50.332 135.048 49.652ZM140.28 49.676C140.28 49.268 140.2 48.92 140.04 48.632C139.88 48.336 139.664 48.112 139.392 47.96C139.12 47.8 138.828 47.72 138.516 47.72C138.204 47.72 137.916 47.796 137.652 47.948C137.388 48.1 137.172 48.324 137.004 48.62C136.844 48.908 136.764 49.252 136.764 49.652C136.764 50.052 136.844 50.404 137.004 50.708C137.172 51.004 137.388 51.232 137.652 51.392C137.924 51.552 138.212 51.632 138.516 51.632C138.828 51.632 139.12 51.556 139.392 51.404C139.664 51.244 139.88 51.02 140.04 50.732C140.2 50.436 140.28 50.084 140.28 49.676ZM145.293 47.384C145.509 47.032 145.789 46.756 146.133 46.556C146.485 46.356 146.885 46.256 147.333 46.256V48.02H146.889C146.361 48.02 145.961 48.144 145.689 48.392C145.425 48.64 145.293 49.072 145.293 49.688V53H143.613V46.352H145.293V47.384ZM149.209 53.084C148.905 53.084 148.653 52.992 148.453 52.808C148.261 52.616 148.165 52.38 148.165 52.1C148.165 51.82 148.261 51.588 148.453 51.404C148.653 51.212 148.905 51.116 149.209 51.116C149.505 51.116 149.749 51.212 149.941 51.404C150.133 51.588 150.229 51.82 150.229 52.1C150.229 52.38 150.133 52.616 149.941 52.808C149.749 52.992 149.505 53.084 149.209 53.084ZM154.186 46.244C154.682 46.244 155.118 46.344 155.494 46.544C155.87 46.736 156.166 46.988 156.382 47.3V46.352H158.074V53.048C158.074 53.664 157.95 54.212 157.702 54.692C157.454 55.18 157.082 55.564 156.586 55.844C156.09 56.132 155.49 56.276 154.786 56.276C153.842 56.276 153.066 56.056 152.458 55.616C151.858 55.176 151.518 54.576 151.438 53.816H153.106C153.194 54.12 153.382 54.36 153.67 54.536C153.966 54.72 154.322 54.812 154.738 54.812C155.226 54.812 155.622 54.664 155.926 54.368C156.23 54.08 156.382 53.64 156.382 53.048V52.016C156.166 52.328 155.866 52.588 155.482 52.796C155.106 53.004 154.674 53.108 154.186 53.108C153.626 53.108 153.114 52.964 152.65 52.676C152.186 52.388 151.818 51.984 151.546 51.464C151.282 50.936 151.15 50.332 151.15 49.652C151.15 48.98 151.282 48.384 151.546 47.864C151.818 47.344 152.182 46.944 152.638 46.664C153.102 46.384 153.618 46.244 154.186 46.244ZM156.382 49.676C156.382 49.268 156.302 48.92 156.142 48.632C155.982 48.336 155.766 48.112 155.494 47.96C155.222 47.8 154.93 47.72 154.618 47.72C154.306 47.72 154.018 47.796 153.754 47.948C153.49 48.1 153.274 48.324 153.106 48.62C152.946 48.908 152.866 49.252 152.866 49.652C152.866 50.052 152.946 50.404 153.106 50.708C153.274 51.004 153.49 51.232 153.754 51.392C154.026 51.552 154.314 51.632 154.618 51.632C154.93 51.632 155.222 51.556 155.494 51.404C155.766 51.244 155.982 51.02 156.142 50.732C156.302 50.436 156.382 50.084 156.382 49.676ZM161.251 51.62H164.215V53H159.343V51.644L162.247 47.732H159.355V46.352H164.179V47.708L161.251 51.62Z" fill="white"/>
</g>
</g>
<defs>
<clipPath id="clip0_1_4">
<rect width="180" height="140" fill="white"/>
</clipPath>
<clipPath id="clip1_1_4">
<rect width="90" height="70" fill="white"/>
</clipPath>
<clipPath id="clip2_1_4">
<rect width="90" height="70" fill="white" transform="translate(0 70)"/>
</clipPath>
<clipPath id="clip3_1_4">
<rect width="90" height="70" fill="white" transform="translate(90 70)"/>
</clipPath>
<clipPath id="clip4_1_4">
<rect width="90" height="70" fill="white" transform="translate(90)"/>
</clipPath>
</defs>
</svg>
